<?xml version="1.0" encoding="UTF-8"?><svg id="Layer_1" xmlns="http://www.w3.org/2000/svg" viewBox="0 0 576 576"><defs><style>.cls-1{fill:#be1e2d;}</style></defs><path class="cls-1" d="M205.7,120.25h0c-9.92,2.83-22.81,9.17-30.77,14.53-20.81,14.01-41.55,27.98-43.59,48.72-2.77,28.15,30.6,51.64,41.03,58.97,25.35,17.84,50.95,21.65,50.43,23.93-.81,3.54-58.44-22.42-96.58-.85-38.49,21.76-64.69,97.3-28.21,141.03,35.77,42.87,108.64,27.41,144.44-1.71,12.53-10.19,22.11-25.65,25.25-30.77,6.65-10.83,18.3-29.81,14.07-47.01-.54-2.19-2.18-7.78-2.56-7.69-.51,.12,1.42,10.36,1.71,11.97,5.09,28.42-18.53,76.2-11.11,108.55,6.14,26.76,33.8,44.13,50.43,50.43,69.42,26.3,169.67-55.63,164.1-110.26-5.68-55.71-122.28-91.11-118.8-98.29,1.85-3.82,30.6,15.07,62.39,7.69,34.88-8.1,66.84-46.96,67.52-89.74,.1-6.36,.04-45.43-30.77-69.23-17.83-13.77-48.25-24.2-68.38-11.97-5.51,3.35-9.8,8.12-26.5,49.57-12.33,30.6-20.2,53.35-21.37,52.99-1.36-.41,8.93-31.14,12.82-73.5,2.76-30.08,3.97-45.31-4.27-54.7-19.25-21.93-76.12-13.18-94.02,15.38-8.73,13.94-7.54,29-7.54,29,.88,10.61,5.55,17.61,9.25,23.99,17.31,29.84,19.49,56.46,19.66,56.41,.31-.1-24.93-92.37-54.7-99.15-12.14-2.77-23.93,1.71-23.93,1.71Z"/></svg>